<svg width="472" height="545" viewBox="0 0 472 545" fill="none" xmlns="http://www.w3.org/2000/svg">
<path opacity="0.07" d="M200.811 1.6068L471.367 304.25L200.75 294.563C198.752 294.503 196.573 291.234 197.057 289.054L224.301 168.094L360.638 236.384L222.666 146.239L197.118 2.9387C196.633 0.153827 198.813 -0.572662 200.811 1.6068Z" fill="url(#paint0_linear)"/>
<path opacity="0.4" d="M180.045 16.6815L450.602 319.325L179.985 309.638C177.987 309.578 175.807 306.308 176.292 304.129L203.474 183.229L339.812 251.519L201.961 161.313L176.352 18.0134C175.868 15.2285 178.047 14.502 180.045 16.6815Z" fill="url(#paint1_linear)"/>
<path opacity="0.3" d="M199.963 336.397L19.7941 232.388L19.8546 326.287L184.102 421.094L200.024 444.644L199.963 336.397Z" fill="url(#paint2_linear)"/>
<path d="M0.602539 269.015V243.527L68.5898 282.758V308.245L0.602539 269.015Z" fill="#1D69CF"/>
<path opacity="0.15" d="M153.65 332.523L114.177 309.759V317.993L153.65 340.756V332.523Z" fill="#F7F8FB"/>
<path opacity="0.15" d="M153.65 348.99L77.5499 305.098V313.331L153.65 357.223V348.99Z" fill="#F7F8FB"/>
<path opacity="0.15" d="M153.71 365.517L61.5066 312.302V320.535L153.71 373.751V365.517Z" fill="#F7F8FB"/>
<path d="M163.396 346.689C163.396 354.438 167.998 363.338 173.628 366.607C179.258 369.876 183.859 366.243 183.859 358.494C183.859 350.745 179.258 341.846 173.628 338.576C167.937 335.307 163.396 338.94 163.396 346.689Z" fill="#1D69CF"/>
<path opacity="0.3" d="M215.522 258.845L395.691 362.854L395.752 456.752L231.444 361.885L215.583 367.092L215.522 258.845Z" fill="url(#paint3_linear)"/>
<path d="M343.263 379.381V353.894L411.25 393.124V418.612L343.263 379.381Z" fill="white"/>
<path opacity="0.15" d="M261.836 308.427L301.308 331.191V339.424L261.836 316.661V308.427Z" fill="#F7F8FB"/>
<path opacity="0.15" d="M261.836 324.955L333.092 366.062V374.295L261.836 333.188V324.955Z" fill="#F7F8FB"/>
<path opacity="0.15" d="M261.896 341.422L354.1 394.637V402.871L261.896 349.655V341.422Z" fill="#F7F8FB"/>
<path d="M252.149 311.394C252.149 319.143 247.548 322.775 241.918 319.506C236.288 316.237 231.687 307.337 231.687 299.588C231.687 291.839 236.288 288.207 241.918 291.476C247.548 294.745 252.149 303.705 252.149 311.394Z" fill="white"/>
<path opacity="0.2" d="M420.331 488.415L312.751 426.3V482.361L420.331 544.476V488.415Z" fill="url(#paint4_linear)"/>
<path opacity="0.15" d="M340.297 455.723L372.625 474.43V481.15L340.297 462.443V455.723Z" fill="#F7F8FB"/>
<path opacity="0.15" d="M340.297 469.224L409.192 508.999V515.84L340.297 476.065V469.224Z" fill="#F7F8FB"/>
<path d="M334.606 457.721C334.606 462.322 331.881 464.501 328.491 462.564C325.101 460.627 322.377 455.299 322.377 450.698C322.377 446.097 325.101 443.917 328.491 445.855C331.881 447.792 334.606 453.119 334.606 457.721Z" fill="white"/>
<path opacity="0.2" d="M122.471 402.447L14.8902 340.333V396.393L122.471 458.508V402.447Z" fill="url(#paint5_linear)"/>
<path opacity="0.15" d="M42.4363 369.755L74.765 388.462V395.182L42.4363 376.475V369.755Z" fill="#F7F8FB"/>
<path opacity="0.15" d="M42.4363 383.256L111.332 423.031V429.872L42.4363 390.097V383.256Z" fill="#F7F8FB"/>
<path d="M36.7453 371.753C36.7453 376.354 34.021 378.533 30.6307 376.596C27.2404 374.659 24.5161 369.331 24.5161 364.73C24.5161 360.129 27.2404 357.95 30.6307 359.887C34.021 361.824 36.7453 367.152 36.7453 371.753Z" fill="#1D69CF"/>
<path opacity="0.2" d="M137.909 224.155L111.997 209.201V200.483L137.909 215.437C140.028 216.648 143.115 219.13 145.719 222.944C148.564 227 150.562 232.146 150.562 237.716C150.562 243.891 148.988 247.402 146.021 248.371C143.237 249.279 139.907 247.705 137.909 246.555L127.254 240.38L127.193 240.319C126.285 239.774 124.832 239.229 123.682 239.593C122.713 239.895 121.684 240.804 121.684 244.254C121.684 247.705 122.774 249.764 123.621 251.035C124.711 252.609 126.164 253.699 127.072 254.183L127.193 254.244L159.764 273.072V281.79L127.375 263.083C125.135 261.932 121.926 259.45 119.141 255.575C116.114 251.277 114.056 245.889 114.056 239.895C114.056 233.902 116.114 230.875 119.081 230.027C121.866 229.24 125.074 230.391 127.314 231.722L137.848 237.776C139.362 238.685 140.512 239.048 141.299 238.806C141.905 238.624 142.994 237.776 142.994 233.357C142.994 230.451 142.086 228.574 141.178 227.363C140.149 225.789 138.756 224.639 137.909 224.155Z" fill="#F7F8FB"/>
<path d="M116.72 207.324C116.72 215.134 112.119 218.827 106.488 215.618C100.858 212.349 96.2569 203.389 96.2569 195.519C96.2569 187.709 100.858 184.016 106.488 187.225C112.119 190.494 116.72 199.515 116.72 207.324Z" fill="#1D69CF"/>
<path d="M173.023 284.817C173.023 292.626 168.421 296.319 162.791 293.111C157.161 289.841 152.56 280.881 152.56 273.011C152.56 265.201 157.161 261.508 162.791 264.717C168.421 267.986 173.023 277.007 173.023 284.817Z" fill="white"/>
<path opacity="0.2" d="M244.945 409.954V460.99C244.945 461.535 245.49 462.14 245.853 461.959L257.78 454.633L269.948 476.186C270.614 477.336 271.764 477.457 271.764 476.367V425.513L244.945 409.954Z" fill="url(#paint6_linear)"/>
<defs>
<linearGradient id="paint0_linear" x1="370.045" y1="105.474" x2="246.757" y2="268.286" gradientUnits="userSpaceOnUse">
<stop stop-color="white"/>
<stop offset="1" stop-color="white" stop-opacity="0"/>
</linearGradient>
<linearGradient id="paint1_linear" x1="349.307" y1="120.554" x2="226.019" y2="283.367" gradientUnits="userSpaceOnUse">
<stop stop-color="white"/>
<stop offset="1" stop-color="white" stop-opacity="0"/>
</linearGradient>
<linearGradient id="paint2_linear" x1="160.687" y1="298.768" x2="67.666" y2="371.601" gradientUnits="userSpaceOnUse">
<stop stop-color="white"/>
<stop offset="1" stop-color="white" stop-opacity="0"/>
</linearGradient>
<linearGradient id="paint3_linear" x1="292.917" y1="261.87" x2="316.207" y2="450.776" gradientUnits="userSpaceOnUse">
<stop stop-color="white"/>
<stop offset="1" stop-color="white" stop-opacity="0"/>
</linearGradient>
<linearGradient id="paint4_linear" x1="378.668" y1="464.371" x2="354.401" y2="506.414" gradientUnits="userSpaceOnUse">
<stop stop-color="white"/>
<stop offset="1" stop-color="white" stop-opacity="0"/>
</linearGradient>
<linearGradient id="paint5_linear" x1="80.8078" y1="378.402" x2="56.5409" y2="420.445" gradientUnits="userSpaceOnUse">
<stop stop-color="white"/>
<stop offset="1" stop-color="white" stop-opacity="0"/>
</linearGradient>
<linearGradient id="paint6_linear" x1="269.952" y1="436.042" x2="239.427" y2="455.374" gradientUnits="userSpaceOnUse">
<stop stop-color="white"/>
<stop offset="1" stop-color="white" stop-opacity="0"/>
</linearGradient>
</defs>
</svg>
