<svg width="389" height="606" viewBox="0 0 389 606" fill="none" xmlns="http://www.w3.org/2000/svg">
<path opacity="0.4" d="M330.272 248.609C324.229 245.124 319.893 245.053 317.263 248.324C314.561 251.596 313.282 257.143 313.282 264.895V306.854C313.282 314.819 312.571 321.433 311.078 326.695C309.585 332.171 307.097 336.012 303.685 338.287C300.344 340.634 295.794 341.203 290.036 340.137C284.42 339.141 277.382 336.154 268.994 331.318L265.013 328.971V295.902L270.06 298.817C276.102 302.302 280.083 302.729 282.074 300.24C284.207 297.751 285.273 292.63 285.273 284.879V247.898C285.273 238.226 286.197 230.616 288.116 225.069C289.965 219.451 293.732 215.895 299.348 214.33C293.732 206.294 289.965 198.329 288.116 190.577C286.268 182.825 285.344 174.149 285.344 164.477V127.496C285.344 119.745 284.278 113.344 282.145 108.437C280.155 103.601 276.102 99.4051 270.131 95.9203L265.084 93.0045V59.9351L269.065 62.2819C277.453 67.1179 284.491 72.3094 290.107 77.7855C295.865 83.3326 300.415 89.1642 303.756 95.4225C307.239 101.681 309.727 108.366 311.149 115.549C312.642 122.518 313.353 129.985 313.353 137.951V179.91C313.353 187.661 314.703 194.773 317.334 201.103C320.035 207.432 324.371 212.41 330.343 215.824L330.272 248.609Z" fill="url(#paint0_linear)"/>
<path opacity="0.4" d="M178 127.07C184.043 130.554 188.379 130.625 191.009 127.354C193.711 124.083 194.99 118.535 194.99 110.784V68.8246C194.99 60.8595 195.701 54.2456 197.194 48.983C198.687 43.5069 201.104 39.6666 204.445 37.3198C207.928 35.044 212.478 34.4751 218.094 35.4707C223.852 36.5375 230.961 39.5244 239.349 44.4315L243.33 46.7783V79.8478L238.283 76.932C232.24 73.4472 228.188 72.9494 226.056 75.4385C224.065 77.9987 223.07 83.1192 223.07 90.9421V127.923C223.07 137.524 222.146 145.204 220.226 150.752C218.378 156.37 214.611 159.926 208.995 161.49C214.611 169.526 218.378 177.492 220.226 185.243C222.075 192.995 222.999 201.671 222.999 211.343V248.324C222.999 256.076 223.994 262.405 225.985 267.312C228.117 272.22 232.169 276.487 238.212 279.9L243.259 282.816V315.885L239.278 313.539C230.89 308.703 223.781 303.44 218.023 297.964C212.407 292.488 207.857 286.656 204.374 280.327C201.033 274.14 198.616 267.455 197.194 260.343C195.701 253.374 194.99 245.906 194.99 237.941V195.982C194.99 188.23 193.639 181.119 191.009 174.789C188.308 168.46 183.971 163.482 178 160.068V127.07Z" fill="url(#paint1_linear)"/>
<path opacity="0.15" d="M269.222 217L419.289 303.692L419.218 663.616L269.151 576.995L269.222 217Z" fill="url(#paint2_linear)"/>
<path d="M241 264.15L360.428 333.063V366.132L241 297.22V264.15Z" fill="#0067F4"/>
<path opacity="0.2" d="M288.771 417.266L401.944 482.622V582.684L288.771 517.327V417.266Z" fill="url(#paint3_linear)"/>
<path opacity="0.15" d="M287.634 340.53L402.512 406.882V418.19L287.634 351.837V340.53Z" fill="#F7F8FB"/>
<path opacity="0.15" d="M287.634 363.287L386.944 420.608V431.915L287.634 374.595V363.287Z" fill="#F7F8FB"/>
<path opacity="0.15" d="M287.634 385.761L371.944 434.405V445.712L287.634 397.068V385.761Z" fill="#F7F8FB"/>
<path opacity="0.2" d="M269.222 217L419.289 303.692V351.909L269.151 265.289L269.222 217Z" fill="url(#paint4_linear)"/>
<path opacity="0.2" d="M306.685 263.084C306.685 270.409 302.42 273.822 297.159 270.764C291.899 267.706 287.634 259.386 287.634 252.061C287.634 244.735 291.899 241.322 297.159 244.38C302.42 247.438 306.685 255.83 306.685 263.084Z" fill="#F7F8FB"/>
<defs>
<linearGradient id="paint0_linear" x1="371.192" y1="49.9542" x2="254.691" y2="251.834" gradientUnits="userSpaceOnUse">
<stop stop-color="white"/>
<stop offset="0.903" stop-color="white" stop-opacity="0"/>
</linearGradient>
<linearGradient id="paint1_linear" x1="303.974" y1="36.2652" x2="187.459" y2="238.12" gradientUnits="userSpaceOnUse">
<stop stop-color="white"/>
<stop offset="0.903" stop-color="white" stop-opacity="0"/>
</linearGradient>
<linearGradient id="paint2_linear" x1="422.111" y1="305.327" x2="278.529" y2="553.984" gradientUnits="userSpaceOnUse">
<stop stop-color="white"/>
<stop offset="1" stop-color="white" stop-opacity="0"/>
</linearGradient>
<linearGradient id="paint3_linear" x1="367.028" y1="462.403" x2="327.122" y2="531.511" gradientUnits="userSpaceOnUse">
<stop stop-color="white"/>
<stop offset="1" stop-color="white" stop-opacity="0"/>
</linearGradient>
<linearGradient id="paint4_linear" x1="320.674" y1="217.748" x2="366.463" y2="347.329" gradientUnits="userSpaceOnUse">
<stop stop-color="white"/>
<stop offset="1" stop-color="white" stop-opacity="0"/>
</linearGradient>
</defs>
</svg>
